<svg xmlns="http://www.w3.org/2000/svg" viewBox="0 0 512 512">
  <rect width="512" height="512" rx="112" fill="#2d5be3"/>
  <path fill="#ffffff" d="M128 150c0-24 20-44 44-44h168c24 0 44 20 44 44v232c0 18-21 29-36 18l-72-50a36 36 0 0 0-40 0l-72 50c-15 11-36 0-36-18V150z"/>
  <path fill="#dbeafe" d="M178 160h156c10 0 18 8 18 18s-8 18-18 18H178c-10 0-18-8-18-18s8-18 18-18zm0 68h156c10 0 18 8 18 18s-8 18-18 18H178c-10 0-18-8-18-18s8-18 18-18zm0 68h86c10 0 18 8 18 18s-8 18-18 18h-86c-10 0-18-8-18-18s8-18 18-18z"/>
</svg>
